<svg xmlns="http://www.w3.org/2000/svg" width="112mm" height="35mm" viewBox="0 0 112 35"><rect width="112" height="35" fill="#eef2f6"/><text x="5" y="5" font-family="sans-serif" font-size="2.1" fill="#172433">ACTUAL NATIVE SECTION / X = 71 mm / PRINT ORIENTATION</text><text x="6" y="11" font-family="sans-serif" font-size="2.4" fill="#172433">CURRENT</text><path d="M 7.20000,22.20000 L 7.20000,23.00000 L 44.80000,23.00000 L 44.80000,22.20000 L 46.00000,20.60000 L 36.05530,20.60000 L 36.05530,19.80000 L 32.55254,19.80000 L 32.55254,20.60000 L 32.12264,20.60000 L 32.12264,19.80000 L 30.33922,19.80000 L 30.33922,20.60000 L 19.89492,20.60000 L 19.89492,19.80000 L 15.76281,19.80000 L 15.76281,20.60000 L 6.00000,20.60000 L 7.20000,22.20000 Z" fill="#171d28" fill-rule="evenodd"/><path d="M 32.55254,19.80000 L 36.05530,19.80000 L 36.05530,20.60000 L 46.00000,20.60000 L 32.55254,20.60000 L 32.55254,19.80000 Z" fill="#f7f6ee" fill-rule="evenodd"/><path d="M 30.33922,19.80000 L 32.12264,19.80000 L 32.12264,20.60000 L 32.55254,20.60000 L 30.33922,20.60000 L 30.33922,19.80000 Z" fill="#f7f6ee" fill-rule="evenodd"/><path d="M 15.76281,19.80000 L 19.89492,19.80000 L 19.89492,20.60000 L 30.33922,20.60000 L 15.76281,20.60000 L 15.76281,19.80000 Z" fill="#f7f6ee" fill-rule="evenodd"/><polyline points="5.0000,23.0000 47.0000,23.0000" fill="none" stroke="#697b8e" stroke-width="0.15"/><text x="6" y="28" font-family="sans-serif" font-size="1.9" fill="#172433">BLACK 2.4 + WHITE 0.8 mm</text><text x="61" y="11" font-family="sans-serif" font-size="2.4" fill="#172433">CANDIDATE</text><path d="M 62.20000,22.20000 L 62.20000,23.00000 L 99.80000,23.00000 L 99.80000,22.20000 L 101.00000,20.60000 L 90.80683,20.60000 L 90.80683,19.40000 L 87.50714,19.40000 L 87.50714,20.60000 L 86.40714,20.60000 L 86.40714,19.40000 L 85.53112,19.40000 L 85.53112,20.60000 L 75.54444,20.60000 L 75.54444,19.40000 L 70.20351,19.40000 L 70.20351,20.60000 L 61.00000,20.60000 L 62.20000,22.20000 Z" fill="#171d28" fill-rule="evenodd"/><path d="M 87.50714,19.40000 L 90.80683,19.40000 L 90.80683,20.60000 L 87.50714,20.60000 L 87.50714,19.40000 Z" fill="#f7f6ee" fill-rule="evenodd"/><path d="M 85.53112,19.40000 L 86.40714,19.40000 L 86.40714,20.60000 L 85.53112,20.60000 L 85.53112,19.40000 Z" fill="#f7f6ee" fill-rule="evenodd"/><path d="M 70.20351,19.40000 L 75.54444,19.40000 L 75.54444,20.60000 L 70.20351,20.60000 L 70.20351,19.40000 Z" fill="#f7f6ee" fill-rule="evenodd"/><polyline points="60.0000,23.0000 102.0000,23.0000" fill="none" stroke="#697b8e" stroke-width="0.15"/><text x="61" y="28" font-family="sans-serif" font-size="1.9" fill="#172433">BLACK 2.4 + WHITE 1.2 mm</text><text x="5" y="34" font-family="sans-serif" font-size="1.6" fill="#172433">Same scale on both axes. Only the white relief grows; carrier and color-change boundary stay unchanged.</text></svg>
